<svg width="1024" height="1024" viewBox="0 0 1024 1024" fill="none" xmlns="http://www.w3.org/2000/svg">
  <defs>
    <linearGradient id="annonaiGradient" x1="278" y1="142" x2="746" y2="812" gradientUnits="userSpaceOnUse">
      <stop offset="0" stop-color="#94F34F"/>
      <stop offset="0.45" stop-color="#48D58D"/>
      <stop offset="1" stop-color="#04AEEF"/>
    </linearGradient>
    <filter id="softShadow" x="180" y="80" width="664" height="810" filterUnits="userSpaceOnUse" color-interpolation-filters="sRGB">
      <feDropShadow dx="0" dy="7" stdDeviation="5" flood-color="#021C1F" flood-opacity="0.28"/>
    </filter>
  </defs>

  <g filter="url(#softShadow)">
    <path d="M512 222C567 222 622 275 666 349C723 444 759 560 733 657C708 751 622 816 512 816C402 816 316 751 291 657C265 560 301 444 358 349C402 275 457 222 512 222Z" stroke="url(#annonaiGradient)" stroke-width="31" stroke-linecap="round" stroke-linejoin="round">
      <animate attributeName="stroke-dasharray" values="0 1650;900 750;1650 0" dur="2.4s" repeatCount="indefinite"/>
      <animate attributeName="stroke-dashoffset" values="0;-190;-420" dur="2.4s" repeatCount="indefinite"/>
    </path>

    <path d="M511 218C508 177 523 143 556 118" stroke="url(#annonaiGradient)" stroke-width="18" stroke-linecap="round"/>
    <path d="M498 194C432 117 351 120 313 146C341 217 417 238 498 218Z" fill="url(#annonaiGradient)" stroke="#0E2E2A" stroke-width="4" stroke-linejoin="round"/>
    <path d="M520 199C574 135 642 133 682 160C654 219 590 236 520 219Z" fill="url(#annonaiGradient)" stroke="#0E2E2A" stroke-width="4" stroke-linejoin="round"/>
    <path d="M503 201C452 173 407 159 346 151" stroke="#10352D" stroke-width="9" stroke-linecap="round" opacity="0.72"/>
    <path d="M525 205C572 186 612 173 657 164" stroke="#10352D" stroke-width="8" stroke-linecap="round" opacity="0.62"/>

    <g fill="#061E22" stroke="url(#annonaiGradient)" stroke-width="10">
      <circle cx="480" cy="828" r="23"/>
      <circle cx="544" cy="828" r="23"/>
    </g>
  </g>
</svg>
